<?xml version="1.0" encoding="utf-8"?>
<!-- Generator: Adobe Illustrator 19.0.0, SVG Export Plug-In . SVG Version: 6.00 Build 0)  -->
<svg version="1.1" id="layer" xmlns="http://www.w3.org/2000/svg" xmlns:xlink="http://www.w3.org/1999/xlink" x="0px" y="0px"
	 viewBox="-153 -46 652 652" style="enable-background:new -153 -46 652 652;" xml:space="preserve">
<style type="text/css">
	.st0{fill:#239CCE;}
	.st1{fill:#24B7AB;}
	.st2{fill:#57565A;}
</style>
<path class="st0" d="M-60.7,349.1c-6,0.3-12.8-0.6-19.5-2.3c-17.2-4.4-31.9-12.9-42.3-27.8c-1.3-1.9-2.9-3.5-3.7-5.6
	c-1.3-3.2,0.7-6.5,4.2-6.5c2.2-0.1,4.4,0.4,6.6,1c8.3,2,16.7,4,25.2,5.2c17.1,2.5,33.4-0.4,48.7-8.4c12-6.2,22.7-14.2,31.1-24.9
	c1.8-2.3,3.3-4.8,5.1-7.2c4.1-5.6,10.5-7.5,17.2-5.2c9.3,3.2,14.2,10.8,13.1,20.5c-0.4,3.4-2.1,6.3-3.5,9.4
	c-3,6.6-6.9,12.6-11.5,18.3c-1.2,1.5-1.8,1.9-3.5,0.2c-7.8-7.5-17.1-10.2-27.7-7.5c-16.2,4-24.6,21.1-20.2,36.4
	c0.5,1.9,0.2,2.4-1.6,2.8C-48.5,348.6-54.1,349.1-60.7,349.1 M-38.1,246.5c12.5,0,22.5-10.1,22.5-22.5
	c-0.1-12.6-10.2-22.9-22.6-22.8c-11.9,0.1-22.9,8.8-22.6,23.1C-60.5,237.3-51.4,245.9-38.1,246.5"/>
<path class="st1" d="M10.4,210.6c19.3,0.3,37.9,7.2,53.3,22.1c3.9,3.8,7.2,8.1,10,12.9c1.1,1.9,1.4,3.6,0.1,5.4
	c-1.3,1.9-3.1,2.8-5.4,2.3c-6.8-1.5-13.5-3.1-20.3-4.5c-15.9-3.4-31.8-3.8-47.3,1.8c-19.3,7-35.4,18.4-46.8,35.8
	c-5.2,7.9-16.2,9.6-23.8,3.6c-7.5-5.9-9.7-14.8-5.6-23.9c3.5-7.9,7.7-15.4,13.4-22c1.2-1.4,1.8-1.3,3.1-0.1
	c5.9,5.6,12.9,8.7,21.1,8.6c19-0.2,32.5-19,27.2-36.5c-0.9-3.1-0.8-3.3,2.4-3.8C-2.7,211.1,2.9,210.7,10.4,210.6 M327.7,293.7
	c0,4,0,8,0,12.1c0,4.1,0,8.2,0.1,12.3c0,2.9,0.8,3.7,3.7,3.7c2.5,0,5,0,7.5,0c4,0,4.5-0.5,4.6-4.4c0-4,0.1-8-0.1-12.1
	c-0.1-2.1,0.8-2.6,2.7-2.3c2.8,0.4,4.2,2.2,5.2,4.5c1.5,3.3,3.2,6.6,4.6,10c1.4,3.1,3.7,4.4,7,4.3c2.8,0,5.5,0,8.3,0
	c3.6,0,4.5-1.4,2.7-4.7c-2.7-5-5.3-10-8.1-15c-0.5-0.9-0.6-1.4,0.3-2c6.1-4.1,7.6-10.2,7.3-17.1c-0.3-10-7.6-17.4-18.4-17.4
	c-7.7,0-15.4,0-23.1,0c-3.8,0-4.4,0.6-4.4,4.6C327.7,277.9,327.7,285.8,327.7,293.7L327.7,293.7z M348.9,279.4c1.1,0,2.2,0,3.3,0
	c3.4,0.2,5.1,1.9,5.1,5.2c0,3.1-2,5-5.3,5.1c-2.2,0.1-4.4-0.1-6.5,0.1c-1.8,0.1-2.1-0.8-2.1-2.2c0-0.8,0.1-1.7,0.1-2.5
	C343.4,279.3,343.3,279.3,348.9,279.4 M251.7,264.3c-5.3-0.4-10.4,0.7-15.2,3.2c-5.5,2.9-8.3,7.7-8.5,13.8
	c-0.2,6.3,1.7,11.7,7.6,15.1c3.5,2,7.3,2.8,11.2,3.4c3.4,0.5,6.8,0.8,10.1,2c1.5,0.6,2.7,1.6,2.6,3.3c0,1.7-1,2.8-2.5,3.5
	c-4.8,2.4-12.1,0.6-15-3.8c-1.1-1.5-2.4-2.1-4.1-1.5c-2.8,1-5.6,2.1-8.5,3.1c-1.9,0.7-2.3,2.1-1.7,3.8c1.1,3.2,3,6,5.8,8
	c8.9,6.3,26.1,6.2,35.1-0.2c5.8-4.1,7.5-9.8,6.7-16.5c-0.7-6.3-4.2-10.4-9.9-12.8c-2.9-1.2-5.9-1.8-9-2.3c-3.2-0.5-6.5-0.6-9.6-1.9
	c-1.6-0.6-2.8-1.6-2.7-3.5c0.1-1.9,1.3-2.9,3-3.2c4.8-1,10.5-1.1,12.8,4.1c0.8,1.7,2.3,2,4,1.2c2.7-1.3,5.5-2.4,8.3-3.6
	c1.9-0.8,2.4-2.2,1.6-4.1c-1.5-3.2-3.5-5.9-6.5-7.8C262.4,265,257.2,264.1,251.7,264.3 M281.2,293.7c0,7,0,13.9,0,20.9
	c0,6.9-1,7.4,7.3,7.2c0.3,0,0.5,0,0.8,0c9.6,0,19.1,0,28.7,0c3.4,0,4-0.7,4-4c0-2.3,0.1-4.7,0-7c-0.1-1.9-0.9-3-3.1-3
	c-5.5,0.1-11.1,0-16.6,0c-5.4,0-5.3,0-5.3-5.3c0-1.8,0.5-2.3,2.2-2.3c4.6,0.1,9.2,0,13.8,0.1c3.3,0,4.1-0.7,4.1-4.1c0-2,0-4,0-6
	c0-3.2-0.7-3.9-4.1-3.9c-3.8,0-7.5,0-11.3,0c-4.9,0-4.8,0-4.8-4.9c0-1.5,0.4-2,2-2c6.3,0.1,12.6-0.1,18.9,0c2.4,0,3.6-0.9,3.6-3.3
	c0-2.3,0.1-4.5,0-6.8c-0.1-3.3-0.6-3.8-3.9-3.8c-10.9,0-21.8,0-32.7,0c-2.9,0-3.5,0.7-3.5,3.6C281.2,277.3,281.2,285.5,281.2,293.7
	L281.2,293.7z M432.7,293.5c0,7,0,14.1,0,21.1c0,7.1-0.8,7.3,7.3,7.2c9.6-0.1,19.3,0,28.9,0c3.9,0,4.5-0.7,4.6-4.5
	c0-2.1,0-4.2,0-6.3c0-2.3-1-3.3-3.4-3.2c-5.4,0.1-10.9,0-16.3,0c-5.3,0-5.2,0-5.3-5.1c0-1.8,0.4-2.5,2.3-2.5c4.7,0.1,9.4,0.1,14.1,0
	c3,0,3.8-0.8,3.8-3.7c0-2.2,0-4.4,0-6.5c0-3-0.7-3.7-3.7-3.7c-4-0.1-8,0-12.1,0c-5.2-0.1-4.2,0.7-4.4-4.4c-0.1-1.9,0.4-2.6,2.5-2.6
	c6.1,0.2,12.2,0,18.4,0.1c2.4,0,3.6-0.9,3.5-3.4c-0.1-2.3,0-4.7,0-7c-0.1-2.9-0.7-3.5-3.6-3.5c-10.9,0-21.8,0-32.7,0
	c-3.2,0-3.7,0.4-3.7,3.6C432.7,277.2,432.7,285.4,432.7,293.5 M-14,358.7c13.4-0.1,23.1-9.8,22.9-23c-0.1-12.8-10.1-22.6-23-22.5
	c-12.6,0.1-22.7,10.5-22.6,23.1C-36.5,348.7-26.3,358.8-14,358.7 M401.6,305.8c-0.4-2.5-0.7-5.1-1.3-7.5c-2.6-9.7-5.3-19.4-8-29
	c-0.8-3-1.7-3.7-5-3.8c-3.3-0.1-6.5,0-9.8,0c-2.9,0-3.5,0.9-2.6,3.5c5.8,16.5,11.6,33,17.3,49.5c0.8,2.3,2.3,3.4,4.7,3.3
	c3.1-0.1,6.2-0.1,9.3,0c2.6,0.1,3.9-1.1,4.7-3.5c2.8-8.2,5.7-16.3,8.5-24.4c2.9-8.2,5.8-16.4,8.6-24.6c1.1-3.1,0.5-3.8-2.7-3.8
	c-2.9,0-5.9,0-8.8,0c-3.8,0-4.5,0.5-5.4,4.2C408,281.7,403.7,293.4,401.6,305.8"/>
<path class="st2" d="M185.8,299c-0.6-2.6-1.2-4.9-1.7-7.3c-1.4-7.7-0.7-15.6-0.8-23.3c0-1.9,1-2.9,3-2.9c2.9,0,5.7,0,8.6,0
	c2.2,0,3.3,1.1,3.3,3.4c0,16.4,0,32.9,0,49.3c0,2.7-0.8,3.5-3.4,3.5c-2.9,0-5.9-0.1-8.8,0c-1.7,0-2.8-0.7-3.7-2.1
	c-4.2-6.5-8.4-12.9-12.5-19.4c-2.6-4-4.2-8.4-5.6-12.9c-0.2-0.7-0.3-1.5-1-2.2c-0.1,1.9,0.5,3.5,0.9,5.2c2,9.4,1.4,18.9,1.4,28.3
	c0,1.9-1.1,3-3,3c-2.6,0-5.2,0-7.8,0c-3.5,0-4.1-0.7-4.1-4.1c0-11.2,0-22.5,0-33.7c0-4.9,0-9.7,0-14.6c0-3.1,0.7-3.8,3.9-3.8
	c3,0,6,0,9.1,0c1.5,0,2.6,0.5,3.4,1.7c4.7,7.4,9.5,14.8,14.2,22.3c1.5,2.4,2.5,5.1,3.6,7.8C184.8,297.8,184.8,298.5,185.8,299
	 M186.1,299.6c-0.1-0.2-0.1-0.4-0.4-0.3c-0.1,0-0.2,0.3-0.1,0.3c0.1,0.1,0.3,0.2,0.4,0.3C186,299.9,186.1,299.7,186.1,299.6
	 M31,293.5C31,293.5,31,293.5,31,293.5c-0.1,2.9-0.1,5.7,0,8.6c0.3,9.6,5.4,16.6,14,19.4c6.1,1.9,12.2,2.1,18.4,0.7
	c7.3-1.6,12.5-5.9,15.2-12.9c0.8-2.1,0.4-3.6-1.8-4.4c-3.1-1.1-6.2-2.1-9.2-3.3c-1.8-0.7-2.8,0.1-3.6,1.7c-2.5,5-4.8,6.2-10.4,5.7
	c-4.1-0.4-6.5-2.7-6.6-6.8c-0.2-5.7-0.1-11.4,0-17.1c0-2.5,1.1-4.5,3.4-5.8c5-2.8,11.3-0.9,13.5,4.3c1,2.2,2.4,2.6,4.4,1.9
	c2.8-1,5.7-2.1,8.5-3c2.2-0.7,2.8-2.1,2-4.3c-1.8-4.9-4.9-8.8-9.7-11.1c-7.4-3.5-15.1-3.7-22.8-1.6c-9.2,2.5-14.5,9.3-15,18.8
	C30.9,287.3,31,290.4,31,293.5 M83.9,293.4c0,8.2,0,16.4,0,24.6c0,2.9,0.7,3.7,3.5,3.7c10.5,0.1,20.9,0,31.4,0
	c2.3,0,3.3-1.2,3.3-3.5c0-2.3,0-4.5,0-6.8c0-3-0.7-3.7-3.7-3.7c-4.8,0-9.5,0-14.3,0c-4.5,0-4.5,0-4.5-4.4c0-11.5,0-23,0-34.4
	c0-2.8-0.6-3.4-3.4-3.5c-2.9,0-5.9,0-8.8,0c-2.9,0-3.5,0.6-3.5,3.6C83.9,277.2,83.9,285.3,83.9,293.4 M221.9,293.7
	c0-8.2,0-16.4,0-24.6c0-2.9-0.6-3.5-3.5-3.5c-3,0-6,0.1-9,0c-2.3-0.1-3.1,0.9-3.1,3.2c0,16.7,0,33.3,0,50c0,2.3,1.1,3.2,3.2,3.1
	c2.9-0.1,5.9,0,8.8,0c3.1,0,3.7-0.6,3.7-3.7C221.9,309.9,221.9,301.8,221.9,293.7L221.9,293.7z M142.4,293.7c0-8.3,0-16.6,0-24.9
	c0-2.3-0.9-3.4-3.3-3.3c-3,0.1-6,0-9,0c-2.9,0-3.4,0.5-3.4,3.4c0,16.5,0,33,0,49.5c0,2.4,1,3.4,3.3,3.4c2.9,0,5.9,0,8.8,0
	c3.1,0,3.6-0.6,3.7-3.7C142.4,309.9,142.4,301.8,142.4,293.7L142.4,293.7z"/>
</svg>
